<svg width="247" height="62" viewBox="0 0 247 62" fill="none" xmlns="http://www.w3.org/2000/svg">
<path d="M212.003 56.26V58H210.959C210.215 58 209.635 57.82 209.219 57.46C208.803 57.092 208.595 56.496 208.595 55.672V53.008H207.779V51.304H208.595V49.672H210.647V51.304H211.991V53.008H210.647V55.696C210.647 55.896 210.695 56.04 210.791 56.128C210.887 56.216 211.047 56.26 211.271 56.26H212.003Z" fill="white"/>
<path d="M207.189 54.544C207.189 54.736 207.177 54.936 207.153 55.144H202.509C202.541 55.56 202.673 55.88 202.905 56.104C203.145 56.32 203.437 56.428 203.781 56.428C204.293 56.428 204.649 56.212 204.849 55.78H207.033C206.921 56.22 206.717 56.616 206.421 56.968C206.133 57.32 205.769 57.596 205.329 57.796C204.889 57.996 204.397 58.096 203.853 58.096C203.197 58.096 202.613 57.956 202.101 57.676C201.589 57.396 201.189 56.996 200.901 56.476C200.613 55.956 200.469 55.348 200.469 54.652C200.469 53.956 200.609 53.348 200.889 52.828C201.177 52.308 201.577 51.908 202.089 51.628C202.601 51.348 203.189 51.208 203.853 51.208C204.501 51.208 205.077 51.344 205.581 51.616C206.085 51.888 206.477 52.276 206.757 52.78C207.045 53.284 207.189 53.872 207.189 54.544ZM205.089 54.004C205.089 53.652 204.969 53.372 204.729 53.164C204.489 52.956 204.189 52.852 203.829 52.852C203.485 52.852 203.193 52.952 202.953 53.152C202.721 53.352 202.577 53.636 202.521 54.004H205.089Z" fill="white"/>
<path d="M196.909 58.096C196.325 58.096 195.805 57.996 195.349 57.796C194.893 57.596 194.533 57.324 194.269 56.98C194.005 56.628 193.857 56.236 193.825 55.804H195.853C195.877 56.036 195.985 56.224 196.177 56.368C196.369 56.512 196.605 56.584 196.885 56.584C197.141 56.584 197.337 56.536 197.473 56.44C197.617 56.336 197.689 56.204 197.689 56.044C197.689 55.852 197.589 55.712 197.389 55.624C197.189 55.528 196.865 55.424 196.417 55.312C195.937 55.2 195.537 55.084 195.217 54.964C194.897 54.836 194.621 54.64 194.389 54.376C194.157 54.104 194.041 53.74 194.041 53.284C194.041 52.9 194.145 52.552 194.353 52.24C194.569 51.92 194.881 51.668 195.289 51.484C195.705 51.3 196.197 51.208 196.765 51.208C197.605 51.208 198.265 51.416 198.745 51.832C199.233 52.248 199.513 52.8 199.585 53.488H197.689C197.657 53.256 197.553 53.072 197.377 52.936C197.209 52.8 196.985 52.732 196.705 52.732C196.465 52.732 196.281 52.78 196.153 52.876C196.025 52.964 195.961 53.088 195.961 53.248C195.961 53.44 196.061 53.584 196.261 53.68C196.469 53.776 196.789 53.872 197.221 53.968C197.717 54.096 198.121 54.224 198.433 54.352C198.745 54.472 199.017 54.672 199.249 54.952C199.489 55.224 199.613 55.592 199.621 56.056C199.621 56.448 199.509 56.8 199.285 57.112C199.069 57.416 198.753 57.656 198.337 57.832C197.929 58.008 197.453 58.096 196.909 58.096Z" fill="white"/>
<path d="M190.582 56.512H187.438L186.934 58H184.786L187.834 49.576H190.21L193.258 58H191.086L190.582 56.512ZM190.054 54.928L189.01 51.844L187.978 54.928H190.054Z" fill="white"/>
<path d="M174.242 54.64C174.242 53.952 174.37 53.348 174.626 52.828C174.89 52.308 175.246 51.908 175.694 51.628C176.142 51.348 176.642 51.208 177.194 51.208C177.666 51.208 178.078 51.304 178.43 51.496C178.79 51.688 179.066 51.94 179.258 52.252V51.304H181.31V58H179.258V57.052C179.058 57.364 178.778 57.616 178.418 57.808C178.066 58 177.654 58.096 177.182 58.096C176.638 58.096 176.142 57.956 175.694 57.676C175.246 57.388 174.89 56.984 174.626 56.464C174.37 55.936 174.242 55.328 174.242 54.64ZM179.258 54.652C179.258 54.14 179.114 53.736 178.826 53.44C178.546 53.144 178.202 52.996 177.794 52.996C177.386 52.996 177.038 53.144 176.75 53.44C176.47 53.728 176.33 54.128 176.33 54.64C176.33 55.152 176.47 55.56 176.75 55.864C177.038 56.16 177.386 56.308 177.794 56.308C178.202 56.308 178.546 56.16 178.826 55.864C179.114 55.568 179.258 55.164 179.258 54.652Z" fill="white"/>
<path d="M173.507 56.26V58H172.463C171.719 58 171.139 57.82 170.723 57.46C170.307 57.092 170.099 56.496 170.099 55.672V53.008H169.283V51.304H170.099V49.672H172.151V51.304H173.495V53.008H172.151V55.696C172.151 55.896 172.199 56.04 172.295 56.128C172.391 56.216 172.551 56.26 172.775 56.26H173.507Z" fill="white"/>
<path d="M161.223 54.64C161.223 53.952 161.351 53.348 161.607 52.828C161.871 52.308 162.227 51.908 162.675 51.628C163.123 51.348 163.623 51.208 164.175 51.208C164.647 51.208 165.059 51.304 165.411 51.496C165.771 51.688 166.047 51.94 166.239 52.252V51.304H168.291V58H166.239V57.052C166.039 57.364 165.759 57.616 165.399 57.808C165.047 58 164.635 58.096 164.163 58.096C163.619 58.096 163.123 57.956 162.675 57.676C162.227 57.388 161.871 56.984 161.607 56.464C161.351 55.936 161.223 55.328 161.223 54.64ZM166.239 54.652C166.239 54.14 166.095 53.736 165.807 53.44C165.527 53.144 165.183 52.996 164.775 52.996C164.367 52.996 164.019 53.144 163.731 53.44C163.451 53.728 163.311 54.128 163.311 54.64C163.311 55.152 163.451 55.56 163.731 55.864C164.019 56.16 164.367 56.308 164.775 56.308C165.183 56.308 165.527 56.16 165.807 55.864C166.095 55.568 166.239 55.164 166.239 54.652Z" fill="white"/>
<path d="M156.068 49.576C156.956 49.576 157.732 49.752 158.396 50.104C159.06 50.456 159.572 50.952 159.932 51.592C160.3 52.224 160.484 52.956 160.484 53.788C160.484 54.612 160.3 55.344 159.932 55.984C159.572 56.624 159.056 57.12 158.384 57.472C157.72 57.824 156.948 58 156.068 58H152.912V49.576H156.068ZM155.936 56.224C156.712 56.224 157.316 56.012 157.748 55.588C158.18 55.164 158.396 54.564 158.396 53.788C158.396 53.012 158.18 52.408 157.748 51.976C157.316 51.544 156.712 51.328 155.936 51.328H154.964V56.224H155.936Z" fill="white"/>
<path d="M146.363 51.232C147.147 51.232 147.771 51.488 148.235 52C148.707 52.504 148.943 53.2 148.943 54.088V58H146.903V54.364C146.903 53.916 146.787 53.568 146.555 53.32C146.323 53.072 146.011 52.948 145.619 52.948C145.227 52.948 144.915 53.072 144.683 53.32C144.451 53.568 144.335 53.916 144.335 54.364V58H142.283V51.304H144.335V52.192C144.543 51.896 144.823 51.664 145.175 51.496C145.527 51.32 145.923 51.232 146.363 51.232Z" fill="white"/>
<path d="M141.201 54.544C141.201 54.736 141.189 54.936 141.165 55.144H136.521C136.553 55.56 136.685 55.88 136.917 56.104C137.157 56.32 137.449 56.428 137.793 56.428C138.305 56.428 138.661 56.212 138.861 55.78H141.045C140.933 56.22 140.729 56.616 140.433 56.968C140.145 57.32 139.781 57.596 139.341 57.796C138.901 57.996 138.409 58.096 137.865 58.096C137.209 58.096 136.625 57.956 136.113 57.676C135.601 57.396 135.201 56.996 134.913 56.476C134.625 55.956 134.481 55.348 134.481 54.652C134.481 53.956 134.621 53.348 134.901 52.828C135.189 52.308 135.589 51.908 136.101 51.628C136.613 51.348 137.201 51.208 137.865 51.208C138.513 51.208 139.089 51.344 139.593 51.616C140.097 51.888 140.489 52.276 140.769 52.78C141.057 53.284 141.201 53.872 141.201 54.544ZM139.101 54.004C139.101 53.652 138.981 53.372 138.741 53.164C138.501 52.956 138.201 52.852 137.841 52.852C137.497 52.852 137.205 52.952 136.965 53.152C136.733 53.352 136.589 53.636 136.533 54.004H139.101Z" fill="white"/>
<path d="M130.729 51.232C131.561 51.232 132.221 51.484 132.709 51.988C133.205 52.492 133.453 53.192 133.453 54.088V58H131.413V54.364C131.413 53.932 131.297 53.6 131.065 53.368C130.841 53.128 130.529 53.008 130.129 53.008C129.729 53.008 129.413 53.128 129.181 53.368C128.957 53.6 128.845 53.932 128.845 54.364V58H126.805V54.364C126.805 53.932 126.689 53.6 126.457 53.368C126.233 53.128 125.921 53.008 125.521 53.008C125.121 53.008 124.805 53.128 124.573 53.368C124.349 53.6 124.237 53.932 124.237 54.364V58H122.185V51.304H124.237V52.144C124.445 51.864 124.717 51.644 125.053 51.484C125.389 51.316 125.769 51.232 126.193 51.232C126.697 51.232 127.145 51.34 127.537 51.556C127.937 51.772 128.249 52.08 128.473 52.48C128.705 52.112 129.021 51.812 129.421 51.58C129.821 51.348 130.257 51.232 130.729 51.232Z" fill="white"/>
<path d="M121.103 54.544C121.103 54.736 121.091 54.936 121.067 55.144H116.423C116.455 55.56 116.587 55.88 116.819 56.104C117.059 56.32 117.351 56.428 117.695 56.428C118.207 56.428 118.563 56.212 118.763 55.78H120.947C120.835 56.22 120.631 56.616 120.335 56.968C120.047 57.32 119.683 57.596 119.243 57.796C118.803 57.996 118.311 58.096 117.767 58.096C117.111 58.096 116.527 57.956 116.015 57.676C115.503 57.396 115.103 56.996 114.815 56.476C114.527 55.956 114.383 55.348 114.383 54.652C114.383 53.956 114.523 53.348 114.803 52.828C115.091 52.308 115.491 51.908 116.003 51.628C116.515 51.348 117.103 51.208 117.767 51.208C118.415 51.208 118.991 51.344 119.495 51.616C119.999 51.888 120.391 52.276 120.671 52.78C120.959 53.284 121.103 53.872 121.103 54.544ZM119.003 54.004C119.003 53.652 118.883 53.372 118.643 53.164C118.403 52.956 118.103 52.852 117.743 52.852C117.399 52.852 117.107 52.952 116.867 53.152C116.635 53.352 116.491 53.636 116.435 54.004H119.003Z" fill="white"/>
<path d="M112.284 50.608C111.924 50.608 111.628 50.504 111.396 50.296C111.172 50.08 111.06 49.816 111.06 49.504C111.06 49.184 111.172 48.92 111.396 48.712C111.628 48.496 111.924 48.388 112.284 48.388C112.636 48.388 112.924 48.496 113.148 48.712C113.38 48.92 113.496 49.184 113.496 49.504C113.496 49.816 113.38 50.08 113.148 50.296C112.924 50.504 112.636 50.608 112.284 50.608ZM113.316 58.864C113.316 59.688 113.108 60.28 112.692 60.64C112.276 61.008 111.696 61.192 110.952 61.192H110.148V59.452H110.64C110.864 59.452 111.024 59.408 111.12 59.32C111.216 59.232 111.264 59.088 111.264 58.888V51.304H113.316V58.864Z" fill="white"/>
<path d="M102.711 54.64C102.711 53.952 102.839 53.348 103.095 52.828C103.359 52.308 103.715 51.908 104.163 51.628C104.611 51.348 105.111 51.208 105.663 51.208C106.135 51.208 106.547 51.304 106.899 51.496C107.259 51.688 107.535 51.94 107.727 52.252V51.304H109.779V58H107.727V57.052C107.527 57.364 107.247 57.616 106.887 57.808C106.535 58 106.123 58.096 105.651 58.096C105.107 58.096 104.611 57.956 104.163 57.676C103.715 57.388 103.359 56.984 103.095 56.464C102.839 55.936 102.711 55.328 102.711 54.64ZM107.727 54.652C107.727 54.14 107.583 53.736 107.295 53.44C107.015 53.144 106.671 52.996 106.263 52.996C105.855 52.996 105.507 53.144 105.219 53.44C104.939 53.728 104.799 54.128 104.799 54.64C104.799 55.152 104.939 55.56 105.219 55.864C105.507 56.16 105.855 56.308 106.263 56.308C106.671 56.308 107.015 56.16 107.295 55.864C107.583 55.568 107.727 55.164 107.727 54.652Z" fill="white"/>
<path d="M99.1131 51.232C99.8971 51.232 100.521 51.488 100.985 52C101.457 52.504 101.693 53.2 101.693 54.088V58H99.6531V54.364C99.6531 53.916 99.5371 53.568 99.3051 53.32C99.0731 53.072 98.7611 52.948 98.3691 52.948C97.9771 52.948 97.6651 53.072 97.4331 53.32C97.2011 53.568 97.0851 53.916 97.0851 54.364V58H95.0331V51.304H97.0851V52.192C97.2931 51.896 97.5731 51.664 97.9251 51.496C98.2771 51.32 98.6731 51.232 99.1131 51.232Z" fill="white"/>
<path d="M86.4805 54.64C86.4805 53.952 86.6085 53.348 86.8645 52.828C87.1285 52.308 87.4845 51.908 87.9325 51.628C88.3805 51.348 88.8805 51.208 89.4325 51.208C89.9045 51.208 90.3165 51.304 90.6685 51.496C91.0285 51.688 91.3045 51.94 91.4965 52.252V51.304H93.5485V58H91.4965V57.052C91.2965 57.364 91.0165 57.616 90.6565 57.808C90.3045 58 89.8925 58.096 89.4205 58.096C88.8765 58.096 88.3805 57.956 87.9325 57.676C87.4845 57.388 87.1285 56.984 86.8645 56.464C86.6085 55.936 86.4805 55.328 86.4805 54.64ZM91.4965 54.652C91.4965 54.14 91.3525 53.736 91.0645 53.44C90.7845 53.144 90.4405 52.996 90.0325 52.996C89.6245 52.996 89.2765 53.144 88.9885 53.44C88.7085 53.728 88.5685 54.128 88.5685 54.64C88.5685 55.152 88.7085 55.56 88.9885 55.864C89.2765 56.16 89.6245 56.308 90.0325 56.308C90.4405 56.308 90.7845 56.16 91.0645 55.864C91.3525 55.568 91.4965 55.164 91.4965 54.652Z" fill="white"/>
<path d="M85.4129 49.576V58H83.3609V52.948L81.4769 58H79.8209L77.9249 52.936V58H75.8729V49.576H78.2969L80.6609 55.408L83.0009 49.576H85.4129Z" fill="white"/>
<path d="M69.1708 51.232C70.0028 51.232 70.6628 51.484 71.1508 51.988C71.6468 52.492 71.8948 53.192 71.8948 54.088V58H69.8548V54.364C69.8548 53.932 69.7388 53.6 69.5068 53.368C69.2828 53.128 68.9708 53.008 68.5708 53.008C68.1708 53.008 67.8548 53.128 67.6228 53.368C67.3988 53.6 67.2868 53.932 67.2868 54.364V58H65.2468V54.364C65.2468 53.932 65.1308 53.6 64.8988 53.368C64.6748 53.128 64.3628 53.008 63.9628 53.008C63.5628 53.008 63.2468 53.128 63.0148 53.368C62.7908 53.6 62.6788 53.932 62.6788 54.364V58H60.6268V51.304H62.6788V52.144C62.8868 51.864 63.1588 51.644 63.4948 51.484C63.8308 51.316 64.2108 51.232 64.6348 51.232C65.1388 51.232 65.5868 51.34 65.9788 51.556C66.3788 51.772 66.6908 52.08 66.9148 52.48C67.1468 52.112 67.4628 51.812 67.8628 51.58C68.2628 51.348 68.6988 51.232 69.1708 51.232Z" fill="white"/>
<path d="M59.5443 54.544C59.5443 54.736 59.5323 54.936 59.5083 55.144H54.8643C54.8963 55.56 55.0283 55.88 55.2603 56.104C55.5003 56.32 55.7923 56.428 56.1363 56.428C56.6483 56.428 57.0043 56.212 57.2043 55.78H59.3883C59.2763 56.22 59.0723 56.616 58.7763 56.968C58.4883 57.32 58.1243 57.596 57.6843 57.796C57.2443 57.996 56.7523 58.096 56.2083 58.096C55.5523 58.096 54.9683 57.956 54.4563 57.676C53.9443 57.396 53.5443 56.996 53.2563 56.476C52.9683 55.956 52.8243 55.348 52.8243 54.652C52.8243 53.956 52.9643 53.348 53.2443 52.828C53.5323 52.308 53.9323 51.908 54.4443 51.628C54.9563 51.348 55.5443 51.208 56.2083 51.208C56.8563 51.208 57.4323 51.344 57.9363 51.616C58.4403 51.888 58.8323 52.276 59.1123 52.78C59.4003 53.284 59.5443 53.872 59.5443 54.544ZM57.4443 54.004C57.4443 53.652 57.3243 53.372 57.0843 53.164C56.8443 52.956 56.5443 52.852 56.1843 52.852C55.8403 52.852 55.5483 52.952 55.3083 53.152C55.0763 53.352 54.9323 53.636 54.8763 54.004H57.4443Z" fill="white"/>
<path d="M52.0893 56.26V58H51.0453C50.3013 58 49.7213 57.82 49.3053 57.46C48.8893 57.092 48.6813 56.496 48.6813 55.672V53.008H47.8653V51.304H48.6813V49.672H50.7333V51.304H52.0773V53.008H50.7333V55.696C50.7333 55.896 50.7813 56.04 50.8773 56.128C50.9733 56.216 51.1333 56.26 51.3573 56.26H52.0893Z" fill="white"/>
<path d="M44.3899 58.096C43.8059 58.096 43.2859 57.996 42.8299 57.796C42.3739 57.596 42.0139 57.324 41.7499 56.98C41.4859 56.628 41.3379 56.236 41.3059 55.804H43.3339C43.3579 56.036 43.4659 56.224 43.6579 56.368C43.8499 56.512 44.0859 56.584 44.3659 56.584C44.6219 56.584 44.8179 56.536 44.9539 56.44C45.0979 56.336 45.1699 56.204 45.1699 56.044C45.1699 55.852 45.0699 55.712 44.8699 55.624C44.6699 55.528 44.3459 55.424 43.8979 55.312C43.4179 55.2 43.0179 55.084 42.6979 54.964C42.3779 54.836 42.1019 54.64 41.8699 54.376C41.6379 54.104 41.5219 53.74 41.5219 53.284C41.5219 52.9 41.6259 52.552 41.8339 52.24C42.0499 51.92 42.3619 51.668 42.7699 51.484C43.1859 51.3 43.6779 51.208 44.2459 51.208C45.0859 51.208 45.7459 51.416 46.2259 51.832C46.7139 52.248 46.9939 52.8 47.0659 53.488H45.1699C45.1379 53.256 45.0339 53.072 44.8579 52.936C44.6899 52.8 44.4659 52.732 44.1859 52.732C43.9459 52.732 43.7619 52.78 43.6339 52.876C43.5059 52.964 43.4419 53.088 43.4419 53.248C43.4419 53.44 43.5419 53.584 43.7419 53.68C43.9499 53.776 44.2699 53.872 44.7019 53.968C45.1979 54.096 45.6019 54.224 45.9139 54.352C46.2259 54.472 46.4979 54.672 46.7299 54.952C46.9699 55.224 47.0939 55.592 47.1019 56.056C47.1019 56.448 46.9899 56.8 46.7659 57.112C46.5499 57.416 46.2339 57.656 45.8179 57.832C45.4099 58.008 44.9339 58.096 44.3899 58.096Z" fill="white"/>
<path d="M39.1588 50.608C38.7988 50.608 38.5028 50.504 38.2708 50.296C38.0468 50.08 37.9348 49.816 37.9348 49.504C37.9348 49.184 38.0468 48.92 38.2708 48.712C38.5028 48.496 38.7988 48.388 39.1588 48.388C39.5108 48.388 39.7988 48.496 40.0228 48.712C40.2548 48.92 40.3708 49.184 40.3708 49.504C40.3708 49.816 40.2548 50.08 40.0228 50.296C39.7988 50.504 39.5108 50.608 39.1588 50.608ZM40.1788 51.304V58H38.1268V51.304H40.1788Z" fill="white"/>
<path d="M33.792 58.084C33.176 58.084 32.624 57.984 32.136 57.784C31.648 57.584 31.256 57.288 30.96 56.896C30.672 56.504 30.52 56.032 30.504 55.48H32.688C32.72 55.792 32.828 56.032 33.012 56.2C33.196 56.36 33.436 56.44 33.732 56.44C34.036 56.44 34.276 56.372 34.452 56.236C34.628 56.092 34.716 55.896 34.716 55.648C34.716 55.44 34.644 55.268 34.5 55.132C34.364 54.996 34.192 54.884 33.984 54.796C33.784 54.708 33.496 54.608 33.12 54.496C32.576 54.328 32.132 54.16 31.788 53.992C31.444 53.824 31.148 53.576 30.9 53.248C30.652 52.92 30.528 52.492 30.528 51.964C30.528 51.18 30.812 50.568 31.38 50.128C31.948 49.68 32.688 49.456 33.6 49.456C34.528 49.456 35.276 49.68 35.844 50.128C36.412 50.568 36.716 51.184 36.756 51.976H34.536C34.52 51.704 34.42 51.492 34.236 51.34C34.052 51.18 33.816 51.1 33.528 51.1C33.28 51.1 33.08 51.168 32.928 51.304C32.776 51.432 32.7 51.62 32.7 51.868C32.7 52.14 32.828 52.352 33.084 52.504C33.34 52.656 33.74 52.82 34.284 52.996C34.828 53.18 35.268 53.356 35.604 53.524C35.948 53.692 36.244 53.936 36.492 54.256C36.74 54.576 36.864 54.988 36.864 55.492C36.864 55.972 36.74 56.408 36.492 56.8C36.252 57.192 35.9 57.504 35.436 57.736C34.972 57.968 34.424 58.084 33.792 58.084Z" fill="white"/>
<g filter="url(#filter0_d_2275_1618)">
<path d="M214 21.56C214 18.808 214.512 16.392 215.536 14.312C216.592 12.232 218.016 10.632 219.808 9.512C221.6 8.392 223.6 7.832 225.808 7.832C227.696 7.832 229.344 8.216 230.752 8.984C232.192 9.752 233.296 10.76 234.064 12.008V8.216H242.272V35H234.064V31.208C233.264 32.456 232.144 33.464 230.704 34.232C229.296 35 227.648 35.384 225.76 35.384C223.584 35.384 221.6 34.824 219.808 33.704C218.016 32.552 216.592 30.936 215.536 28.856C214.512 26.744 214 24.312 214 21.56ZM234.064 21.608C234.064 19.56 233.488 17.944 232.336 16.76C231.216 15.576 229.84 14.984 228.208 14.984C226.576 14.984 225.184 15.576 224.032 16.76C222.912 17.912 222.352 19.512 222.352 21.56C222.352 23.608 222.912 25.24 224.032 26.456C225.184 27.64 226.576 28.232 228.208 28.232C229.84 28.232 231.216 27.64 232.336 26.456C233.488 25.272 234.064 23.656 234.064 21.608Z" fill="#48BD74"/>
</g>
<g filter="url(#filter1_d_2275_1618)">
<path d="M183.781 1.30399C187.333 1.30399 190.437 2.00798 193.093 3.41598C195.749 4.82398 197.797 6.80799 199.237 9.36798C200.709 11.896 201.445 14.824 201.445 18.152C201.445 21.448 200.709 24.376 199.237 26.936C197.797 29.496 195.733 31.48 193.045 32.888C190.389 34.296 187.301 35 183.781 35H171.157V1.30399H183.781ZM183.253 27.896C186.357 27.896 188.773 27.048 190.501 25.352C192.229 23.656 193.093 21.256 193.093 18.152C193.093 15.048 192.229 12.632 190.501 10.904C188.773 9.17599 186.357 8.31198 183.253 8.31198H179.365V27.896H183.253Z" fill="#48BD74"/>
</g>
<g filter="url(#filter2_d_2275_1618)">
<path d="M127.347 21.56C127.347 18.808 127.859 16.392 128.883 14.312C129.939 12.232 131.363 10.632 133.155 9.512C134.947 8.392 136.947 7.832 139.155 7.832C141.043 7.832 142.691 8.216 144.099 8.984C145.539 9.752 146.643 10.76 147.411 12.008V8.216H155.619V35H147.411V31.208C146.611 32.456 145.491 33.464 144.051 34.232C142.643 35 140.995 35.384 139.107 35.384C136.931 35.384 134.947 34.824 133.155 33.704C131.363 32.552 129.939 30.936 128.883 28.856C127.859 26.744 127.347 24.312 127.347 21.56ZM147.411 21.608C147.411 19.56 146.835 17.944 145.683 16.76C144.563 15.576 143.187 14.984 141.555 14.984C139.923 14.984 138.531 15.576 137.379 16.76C136.259 17.912 135.699 19.512 135.699 21.56C135.699 23.608 136.259 25.24 137.379 26.456C138.531 27.64 139.923 28.232 141.555 28.232C143.187 28.232 144.563 27.64 145.683 26.456C146.835 25.272 147.411 23.656 147.411 21.608Z" fill="white"/>
</g>
<g filter="url(#filter3_d_2275_1618)">
<path d="M113.429 35H105.221L91.4934 14.216V35H83.2854V1.30399H91.4934L105.221 22.184V1.30399H113.429V35Z" fill="white"/>
</g>
<g filter="url(#filter4_d_2275_1618)">
<path d="M69.3552 21.176C69.3552 21.944 69.3072 22.744 69.2113 23.576H50.6353C50.7633 25.24 51.2913 26.52 52.2192 27.416C53.1792 28.28 54.3473 28.712 55.7233 28.712C57.7713 28.712 59.1952 27.848 59.9952 26.12H68.7312C68.2832 27.88 67.4672 29.464 66.2832 30.872C65.1312 32.28 63.6752 33.384 61.9152 34.184C60.1552 34.984 58.1873 35.384 56.0112 35.384C53.3872 35.384 51.0513 34.824 49.0033 33.704C46.9552 32.584 45.3552 30.984 44.2032 28.904C43.0512 26.824 42.4753 24.392 42.4753 21.608C42.4753 18.824 43.0352 16.392 44.1552 14.312C45.3072 12.232 46.9072 10.632 48.9552 9.512C51.0033 8.392 53.3552 7.832 56.0112 7.832C58.6033 7.832 60.9072 8.376 62.9232 9.464C64.9392 10.552 66.5072 12.104 67.6273 14.12C68.7792 16.136 69.3552 18.488 69.3552 21.176ZM60.9552 19.016C60.9552 17.608 60.4753 16.488 59.5153 15.656C58.5553 14.824 57.3552 14.408 55.9152 14.408C54.5392 14.408 53.3712 14.808 52.4112 15.608C51.4832 16.408 50.9073 17.544 50.6833 19.016H60.9552Z" fill="#F1E628"/>
</g>
<g filter="url(#filter5_d_2275_1618)">
<path d="M17.168 35.336C14.704 35.336 12.496 34.936 10.544 34.136C8.59199 33.336 7.02399 32.152 5.83999 30.584C4.68799 29.016 4.07999 27.128 4.01599 24.92H12.752C12.88 26.168 13.312 27.128 14.048 27.8C14.784 28.44 15.744 28.76 16.928 28.76C18.144 28.76 19.104 28.488 19.808 27.944C20.512 27.368 20.864 26.584 20.864 25.592C20.864 24.76 20.576 24.072 20 23.528C19.456 22.984 18.768 22.536 17.936 22.184C17.136 21.832 15.984 21.432 14.48 20.984C12.304 20.312 10.528 19.64 9.15199 18.968C7.77599 18.296 6.59199 17.304 5.59999 15.992C4.60799 14.68 4.11199 12.968 4.11199 10.856C4.11199 7.72001 5.24799 5.27201 7.51999 3.512C9.79199 1.72001 12.752 0.824005 16.4 0.824005C20.112 0.824005 23.104 1.72001 25.376 3.512C27.648 5.27201 28.864 7.73601 29.024 10.904H20.144C20.08 9.81601 19.68 8.96801 18.944 8.36001C18.208 7.72001 17.264 7.4 16.112 7.4C15.12 7.4 14.32 7.672 13.712 8.21601C13.104 8.728 12.8 9.48 12.8 10.472C12.8 11.56 13.312 12.408 14.336 13.016C15.36 13.624 16.96 14.28 19.136 14.984C21.312 15.72 23.072 16.424 24.416 17.096C25.792 17.768 26.976 18.744 27.968 20.024C28.96 21.304 29.456 22.952 29.456 24.968C29.456 26.888 28.96 28.632 27.968 30.2C27.008 31.768 25.6 33.016 23.744 33.944C21.888 34.872 19.696 35.336 17.168 35.336Z" fill="#F1E628"/>
</g>
<defs>
<filter id="filter0_d_2275_1618" x="210" y="7.832" width="36.272" height="35.552" filterUnits="userSpaceOnUse" color-interpolation-filters="sRGB">
<feFlood flood-opacity="0" result="BackgroundImageFix"/>
<feColorMatrix in="SourceAlpha" type="matrix" values="0 0 0 0 0 0 0 0 0 0 0 0 0 0 0 0 0 0 127 0" result="hardAlpha"/>
<feOffset dy="4"/>
<feGaussianBlur stdDeviation="2"/>
<feComposite in2="hardAlpha" operator="out"/>
<feColorMatrix type="matrix" values="0 0 0 0 0 0 0 0 0 0 0 0 0 0 0 0 0 0 0.4 0"/>
<feBlend mode="normal" in2="BackgroundImageFix" result="effect1_dropShadow_2275_1618"/>
<feBlend mode="normal" in="SourceGraphic" in2="effect1_dropShadow_2275_1618" result="shape"/>
</filter>
<filter id="filter1_d_2275_1618" x="167.157" y="1.30399" width="38.288" height="41.696" filterUnits="userSpaceOnUse" color-interpolation-filters="sRGB">
<feFlood flood-opacity="0" result="BackgroundImageFix"/>
<feColorMatrix in="SourceAlpha" type="matrix" values="0 0 0 0 0 0 0 0 0 0 0 0 0 0 0 0 0 0 127 0" result="hardAlpha"/>
<feOffset dy="4"/>
<feGaussianBlur stdDeviation="2"/>
<feComposite in2="hardAlpha" operator="out"/>
<feColorMatrix type="matrix" values="0 0 0 0 0 0 0 0 0 0 0 0 0 0 0 0 0 0 0.4 0"/>
<feBlend mode="normal" in2="BackgroundImageFix" result="effect1_dropShadow_2275_1618"/>
<feBlend mode="normal" in="SourceGraphic" in2="effect1_dropShadow_2275_1618" result="shape"/>
</filter>
<filter id="filter2_d_2275_1618" x="123.347" y="7.832" width="36.272" height="35.552" filterUnits="userSpaceOnUse" color-interpolation-filters="sRGB">
<feFlood flood-opacity="0" result="BackgroundImageFix"/>
<feColorMatrix in="SourceAlpha" type="matrix" values="0 0 0 0 0 0 0 0 0 0 0 0 0 0 0 0 0 0 127 0" result="hardAlpha"/>
<feOffset dy="4"/>
<feGaussianBlur stdDeviation="2"/>
<feComposite in2="hardAlpha" operator="out"/>
<feColorMatrix type="matrix" values="0 0 0 0 0 0 0 0 0 0 0 0 0 0 0 0 0 0 0.4 0"/>
<feBlend mode="normal" in2="BackgroundImageFix" result="effect1_dropShadow_2275_1618"/>
<feBlend mode="normal" in="SourceGraphic" in2="effect1_dropShadow_2275_1618" result="shape"/>
</filter>
<filter id="filter3_d_2275_1618" x="79.2854" y="1.30399" width="38.144" height="41.696" filterUnits="userSpaceOnUse" color-interpolation-filters="sRGB">
<feFlood flood-opacity="0" result="BackgroundImageFix"/>
<feColorMatrix in="SourceAlpha" type="matrix" values="0 0 0 0 0 0 0 0 0 0 0 0 0 0 0 0 0 0 127 0" result="hardAlpha"/>
<feOffset dy="4"/>
<feGaussianBlur stdDeviation="2"/>
<feComposite in2="hardAlpha" operator="out"/>
<feColorMatrix type="matrix" values="0 0 0 0 0 0 0 0 0 0 0 0 0 0 0 0 0 0 0.4 0"/>
<feBlend mode="normal" in2="BackgroundImageFix" result="effect1_dropShadow_2275_1618"/>
<feBlend mode="normal" in="SourceGraphic" in2="effect1_dropShadow_2275_1618" result="shape"/>
</filter>
<filter id="filter4_d_2275_1618" x="38.4753" y="7.832" width="34.88" height="35.552" filterUnits="userSpaceOnUse" color-interpolation-filters="sRGB">
<feFlood flood-opacity="0" result="BackgroundImageFix"/>
<feColorMatrix in="SourceAlpha" type="matrix" values="0 0 0 0 0 0 0 0 0 0 0 0 0 0 0 0 0 0 127 0" result="hardAlpha"/>
<feOffset dy="4"/>
<feGaussianBlur stdDeviation="2"/>
<feComposite in2="hardAlpha" operator="out"/>
<feColorMatrix type="matrix" values="0 0 0 0 0 0 0 0 0 0 0 0 0 0 0 0 0 0 0.4 0"/>
<feBlend mode="normal" in2="BackgroundImageFix" result="effect1_dropShadow_2275_1618"/>
<feBlend mode="normal" in="SourceGraphic" in2="effect1_dropShadow_2275_1618" result="shape"/>
</filter>
<filter id="filter5_d_2275_1618" x="0.0159912" y="0.824005" width="33.44" height="42.512" filterUnits="userSpaceOnUse" color-interpolation-filters="sRGB">
<feFlood flood-opacity="0" result="BackgroundImageFix"/>
<feColorMatrix in="SourceAlpha" type="matrix" values="0 0 0 0 0 0 0 0 0 0 0 0 0 0 0 0 0 0 127 0" result="hardAlpha"/>
<feOffset dy="4"/>
<feGaussianBlur stdDeviation="2"/>
<feComposite in2="hardAlpha" operator="out"/>
<feColorMatrix type="matrix" values="0 0 0 0 0 0 0 0 0 0 0 0 0 0 0 0 0 0 0.4 0"/>
<feBlend mode="normal" in2="BackgroundImageFix" result="effect1_dropShadow_2275_1618"/>
<feBlend mode="normal" in="SourceGraphic" in2="effect1_dropShadow_2275_1618" result="shape"/>
</filter>
</defs>
</svg>
